G04 EAGLE Gerber X2 export*
%TF.Part,Single*%
%TF.FileFunction,Copper,L2,Bot,Mixed*%
%TF.FilePolarity,Positive*%
%TF.GenerationSoftware,Autodesk,EAGLE,9.1.3*%
%TF.CreationDate,2018-10-07T17:36:22Z*%
G75*
%MOMM*%
%FSLAX34Y34*%
%LPD*%
%AMOC8*
5,1,8,0,0,1.08239X$1,22.5*%
G01*
%ADD10C,1.879600*%
%ADD11C,1.875000*%
%ADD12C,2.006600*%
%ADD13C,0.508000*%
%ADD14C,0.756400*%
%ADD15C,2.082800*%


D10*
X156989Y634121D03*
X156989Y608721D03*
X156989Y583321D03*
X156989Y557921D03*
X156989Y532521D03*
X156989Y507121D03*
X156989Y481721D03*
X156989Y456321D03*
X156989Y430921D03*
X156989Y405521D03*
X156989Y380121D03*
X156989Y354721D03*
X334789Y354721D03*
X334789Y380121D03*
X334789Y405521D03*
X334789Y430921D03*
X334789Y456321D03*
X334789Y481721D03*
X334789Y507121D03*
X334789Y532521D03*
X334789Y557921D03*
X334789Y583321D03*
X334789Y608721D03*
X334789Y634121D03*
D11*
X282500Y35225D02*
X282500Y16475D01*
X247500Y16475D02*
X247500Y35225D01*
X317500Y35225D02*
X317500Y16475D01*
X192500Y16475D02*
X192500Y35225D01*
X157500Y35225D02*
X157500Y16475D01*
X102500Y16475D02*
X102500Y35225D01*
X67500Y35225D02*
X67500Y16475D01*
X406500Y18475D02*
X406500Y37225D01*
X371500Y37225D02*
X371500Y18475D01*
D12*
X331958Y196200D03*
X230358Y196200D03*
X154158Y196200D03*
X154158Y120000D03*
X331958Y120000D03*
D13*
X154194Y607964D02*
X154194Y608568D01*
X333502Y558038D02*
X334789Y557921D01*
X207789Y557921D01*
X156989Y608721D01*
X155194Y609219D02*
X154194Y608568D01*
X155194Y609219D02*
X156989Y608721D01*
X160006Y650286D02*
X318502Y650286D01*
X161798Y650494D02*
X160006Y650286D01*
X161798Y650494D02*
X151892Y650494D01*
X23020Y531622D01*
X23020Y132080D01*
X334789Y634121D02*
X318502Y650286D01*
X66040Y89154D02*
X66040Y26322D01*
X66040Y89154D02*
X23114Y132080D01*
X66040Y26322D02*
X67500Y25850D01*
X23114Y132080D02*
X23020Y132080D01*
X102362Y26322D02*
X102362Y330200D01*
X102362Y26322D02*
X102500Y25850D01*
X104013Y331851D02*
X108966Y336804D01*
X104013Y331851D02*
X102362Y330200D01*
X110617Y338455D02*
X141986Y338455D01*
X156845Y353314D01*
X110617Y338455D02*
X108966Y336804D01*
X156845Y353314D02*
X156989Y354721D01*
D14*
X108966Y336804D03*
X370000Y670000D03*
X370000Y230000D03*
D13*
X370000Y670000D01*
D15*
X316992Y31369D02*
X316992Y26416D01*
X316992Y31369D02*
X229489Y118872D01*
X155194Y118872D01*
X316992Y26416D02*
X317500Y25850D01*
X155194Y118872D02*
X154158Y120000D01*
M02*
