G04 EAGLE Gerber X2 export*
%TF.Part,Single*%
%TF.FileFunction,Copper,L1,Top,Mixed*%
%TF.FilePolarity,Positive*%
%TF.GenerationSoftware,Autodesk,EAGLE,9.1.3*%
%TF.CreationDate,2018-10-07T17:36:22Z*%
G75*
%MOMM*%
%FSLAX34Y34*%
%LPD*%
%AMOC8*
5,1,8,0,0,1.08239X$1,22.5*%
G01*
%ADD10C,1.879600*%
%ADD11R,0.900000X0.800000*%
%ADD12C,1.875000*%
%ADD13C,0.635000*%
%ADD14R,0.965200X1.447800*%
%ADD15C,2.006600*%
%ADD16C,0.508000*%
%ADD17C,0.756400*%
%ADD18C,2.082800*%


D10*
X156989Y634121D03*
X156989Y608721D03*
X156989Y583321D03*
X156989Y557921D03*
X156989Y532521D03*
X156989Y507121D03*
X156989Y481721D03*
X156989Y456321D03*
X156989Y430921D03*
X156989Y405521D03*
X156989Y380121D03*
X156989Y354721D03*
X334789Y354721D03*
X334789Y380121D03*
X334789Y405521D03*
X334789Y430921D03*
X334789Y456321D03*
X334789Y481721D03*
X334789Y507121D03*
X334789Y532521D03*
X334789Y557921D03*
X334789Y583321D03*
X334789Y608721D03*
X334789Y634121D03*
D11*
X386000Y345000D03*
X406000Y335500D03*
X406000Y354500D03*
D12*
X282500Y35225D02*
X282500Y16475D01*
X247500Y16475D02*
X247500Y35225D01*
X317500Y35225D02*
X317500Y16475D01*
X192500Y16475D02*
X192500Y35225D01*
X157500Y35225D02*
X157500Y16475D01*
X102500Y16475D02*
X102500Y35225D01*
X67500Y35225D02*
X67500Y16475D01*
D13*
X452700Y139325D02*
X452700Y145675D01*
X427300Y145675D02*
X427300Y139325D01*
X452700Y194325D02*
X452700Y200675D01*
X427300Y200675D02*
X427300Y194325D01*
D12*
X406500Y37225D02*
X406500Y18475D01*
X371500Y18475D02*
X371500Y37225D01*
D14*
X468271Y355000D03*
X449729Y355000D03*
X468271Y390000D03*
X449729Y390000D03*
X109271Y390000D03*
X90729Y390000D03*
X109271Y354000D03*
X90729Y354000D03*
D15*
X331958Y196200D03*
X230358Y196200D03*
X154158Y196200D03*
X154158Y120000D03*
X331958Y120000D03*
D16*
X468884Y356616D02*
X468884Y389730D01*
X468884Y356616D02*
X468271Y355000D01*
X468884Y389730D02*
X468271Y390000D01*
X425958Y334200D02*
X406099Y354059D01*
X425958Y334200D02*
X425958Y198120D01*
X427300Y197500D01*
X467233Y188120D02*
X467233Y353314D01*
X467233Y188120D02*
X455676Y176563D01*
X439166Y176563D01*
X427300Y188429D01*
X467233Y353314D02*
X468271Y355000D01*
X90805Y354965D02*
X90805Y389730D01*
X90805Y354965D02*
X90729Y354000D01*
X90805Y389730D02*
X90729Y390000D01*
X92456Y391381D02*
X92456Y543179D01*
X156845Y607568D01*
X92456Y391381D02*
X90729Y390000D01*
X156845Y607568D02*
X156989Y608721D01*
X467233Y424307D02*
X467233Y391381D01*
X467233Y424307D02*
X335153Y556387D01*
X467233Y391381D02*
X468271Y390000D01*
X335153Y556387D02*
X334789Y557921D01*
X427300Y197500D02*
X427300Y188429D01*
X92456Y59436D02*
X70473Y37453D01*
X92456Y59436D02*
X122080Y59436D01*
X155398Y26118D01*
X70473Y37453D02*
X67500Y25850D01*
X156845Y26416D02*
X157500Y25850D01*
X156845Y26416D02*
X155398Y26118D01*
X191516Y26322D02*
X133528Y77096D01*
X133194Y356428D01*
X156989Y380121D01*
X116714Y383633D02*
X111510Y388837D01*
X110614Y388657D01*
X116714Y383633D02*
X133194Y356428D01*
X193167Y26416D02*
X192500Y25850D01*
X193167Y26416D02*
X191516Y26322D01*
X110614Y388657D02*
X109271Y390000D01*
X108966Y353314D02*
X108966Y336804D01*
X108966Y353314D02*
X109271Y354000D01*
D17*
X108966Y336804D03*
D16*
X385495Y344153D02*
X385495Y172516D01*
X333502Y120523D01*
X331958Y120000D01*
X430000Y354965D02*
X449072Y354965D01*
X449729Y355000D01*
X380000Y354965D02*
X335153Y354965D01*
X380000Y354965D02*
X390000Y354965D01*
X335153Y354965D02*
X334789Y354721D01*
X390000Y354965D02*
X391901Y353064D01*
X392183Y353064D01*
X406000Y339247D01*
X406000Y335500D01*
X390000Y354965D02*
X405035Y370000D01*
X410000Y370000D01*
X425035Y354965D01*
X430000Y354965D01*
X244121Y634121D02*
X156989Y634121D01*
X244121Y634121D02*
X280000Y670000D01*
X320294Y670000D01*
X370000Y670000D01*
D17*
X370000Y670000D03*
X370000Y230000D03*
D16*
X365758Y230000D02*
X331958Y196200D01*
X365758Y230000D02*
X370000Y230000D01*
D18*
X282321Y143637D02*
X282321Y26416D01*
X282321Y143637D02*
X231140Y194818D01*
X282321Y26416D02*
X282500Y25850D01*
X231140Y194818D02*
X230358Y196200D01*
D16*
X452374Y196469D02*
X452700Y197500D01*
X452374Y199771D01*
X454025Y201422D02*
X454025Y340106D01*
X458978Y345059D01*
X458978Y369475D01*
X449729Y378724D01*
X449729Y390000D01*
X439459Y379730D02*
X335153Y379730D01*
X334789Y380121D01*
X439459Y379730D02*
X449729Y390000D01*
X452374Y199771D02*
X452700Y197500D01*
X452374Y199771D02*
X454025Y201422D01*
X452374Y141986D02*
X452374Y75946D01*
X409002Y32574D01*
X452374Y141986D02*
X452700Y142500D01*
X409002Y32574D02*
X406500Y27850D01*
X425958Y82550D02*
X425958Y141986D01*
X425958Y82550D02*
X371565Y28157D01*
X425958Y141986D02*
X427300Y142500D01*
X371565Y28157D02*
X371500Y27850D01*
D18*
X245999Y26416D02*
X245999Y104013D01*
X155194Y194818D01*
X245999Y26416D02*
X247500Y25850D01*
X155194Y194818D02*
X154158Y196200D01*
M02*
