M48
;GenerationSoftware,Autodesk,EAGLE,9.1.3*%
;CreationDate,2018-10-07T17:36:22Z*%
FMAT,2
ICI,OFF
METRIC,TZ,000.000
T4C0.350
T3C1.016
T2C1.250
T1C1.295
%
G90
M71
T1
X33196Y12000
X15416Y12000
X15416Y19620
X23036Y19620
X33196Y19620
T2
X37150Y2785
X40650Y2785
X6750Y2585
X10250Y2585
X15750Y2585
X19250Y2585
X31750Y2585
X24750Y2585
X28250Y2585
T3
X15699Y35472
X33479Y35472
X33479Y38012
X33479Y40552
X33479Y43092
X33479Y45632
X33479Y48172
X33479Y50712
X33479Y53252
X33479Y55792
X33479Y58332
X33479Y60872
X33479Y63412
X15699Y38012
X15699Y40552
X15699Y43092
X15699Y45632
X15699Y48172
X15699Y50712
X15699Y53252
X15699Y55792
X15699Y58332
X15699Y60872
X15699Y63412
T4
X37000Y23000
X37000Y67000
X10897Y33680
M30