G04 EAGLE Gerber X2 export*
%TF.Part,Single*%
%TF.FileFunction,Soldermask,Top,1*%
%TF.FilePolarity,Negative*%
%TF.GenerationSoftware,Autodesk,EAGLE,9.1.3*%
%TF.CreationDate,2018-10-07T17:36:22Z*%
G75*
%MOMM*%
%FSLAX34Y34*%
%LPD*%
%AMOC8*
5,1,8,0,0,1.08239X$1,22.5*%
G01*
%ADD10C,2.082800*%
%ADD11R,1.103200X1.003200*%
%ADD12C,2.078200*%
%ADD13C,0.838200*%
%ADD14R,1.168400X1.651000*%
%ADD15C,2.209800*%
%ADD16C,0.959600*%


D10*
X156989Y634121D03*
X156989Y608721D03*
X156989Y583321D03*
X156989Y557921D03*
X156989Y532521D03*
X156989Y507121D03*
X156989Y481721D03*
X156989Y456321D03*
X156989Y430921D03*
X156989Y405521D03*
X156989Y380121D03*
X156989Y354721D03*
X334789Y354721D03*
X334789Y380121D03*
X334789Y405521D03*
X334789Y430921D03*
X334789Y456321D03*
X334789Y481721D03*
X334789Y507121D03*
X334789Y532521D03*
X334789Y557921D03*
X334789Y583321D03*
X334789Y608721D03*
X334789Y634121D03*
D11*
X386000Y345000D03*
X406000Y335500D03*
X406000Y354500D03*
D12*
X282500Y35225D02*
X282500Y16475D01*
X247500Y16475D02*
X247500Y35225D01*
X317500Y35225D02*
X317500Y16475D01*
X192500Y16475D02*
X192500Y35225D01*
X157500Y35225D02*
X157500Y16475D01*
X102500Y16475D02*
X102500Y35225D01*
X67500Y35225D02*
X67500Y16475D01*
D13*
X452700Y139325D02*
X452700Y145675D01*
X427300Y145675D02*
X427300Y139325D01*
X452700Y194325D02*
X452700Y200675D01*
X427300Y200675D02*
X427300Y194325D01*
D12*
X406500Y37225D02*
X406500Y18475D01*
X371500Y18475D02*
X371500Y37225D01*
D14*
X468271Y355000D03*
X449729Y355000D03*
X468271Y390000D03*
X449729Y390000D03*
X109271Y390000D03*
X90729Y390000D03*
X109271Y354000D03*
X90729Y354000D03*
D15*
X331958Y196200D03*
X230358Y196200D03*
X154158Y196200D03*
X154158Y120000D03*
X331958Y120000D03*
D16*
X108966Y336804D03*
X370000Y670000D03*
X370000Y230000D03*
M02*
