G04 EAGLE Gerber X2 export*
%TF.Part,Single*%
%TF.FileFunction,Soldermask,Bot,1*%
%TF.FilePolarity,Negative*%
%TF.GenerationSoftware,Autodesk,EAGLE,9.1.3*%
%TF.CreationDate,2018-10-07T17:36:22Z*%
G75*
%MOMM*%
%FSLAX34Y34*%
%LPD*%
%AMOC8*
5,1,8,0,0,1.08239X$1,22.5*%
G01*
%ADD10C,2.082800*%
%ADD11C,2.078200*%
%ADD12C,2.209800*%
%ADD13C,0.959600*%


D10*
X156989Y634121D03*
X156989Y608721D03*
X156989Y583321D03*
X156989Y557921D03*
X156989Y532521D03*
X156989Y507121D03*
X156989Y481721D03*
X156989Y456321D03*
X156989Y430921D03*
X156989Y405521D03*
X156989Y380121D03*
X156989Y354721D03*
X334789Y354721D03*
X334789Y380121D03*
X334789Y405521D03*
X334789Y430921D03*
X334789Y456321D03*
X334789Y481721D03*
X334789Y507121D03*
X334789Y532521D03*
X334789Y557921D03*
X334789Y583321D03*
X334789Y608721D03*
X334789Y634121D03*
D11*
X282500Y35225D02*
X282500Y16475D01*
X247500Y16475D02*
X247500Y35225D01*
X317500Y35225D02*
X317500Y16475D01*
X192500Y16475D02*
X192500Y35225D01*
X157500Y35225D02*
X157500Y16475D01*
X102500Y16475D02*
X102500Y35225D01*
X67500Y35225D02*
X67500Y16475D01*
X406500Y18475D02*
X406500Y37225D01*
X371500Y37225D02*
X371500Y18475D01*
D12*
X331958Y196200D03*
X230358Y196200D03*
X154158Y196200D03*
X154158Y120000D03*
X331958Y120000D03*
D13*
X108966Y336804D03*
X370000Y670000D03*
X370000Y230000D03*
M02*
