G75*
%MOIN*%
%OFA0B0*%
%FSLAX25Y25*%
%IPPOS*%
%LPD*%
%AMOC8*
5,1,8,0,0,1.08239X$1,22.5*
%
%ADD10C,0.08200*%
%ADD11C,0.08182*%
%ADD12C,0.08700*%
%ADD13C,0.03778*%
D10*
X0063201Y0154091D03*
X0063201Y0164091D03*
X0063201Y0174091D03*
X0063201Y0184091D03*
X0063201Y0194091D03*
X0063201Y0204091D03*
X0063201Y0214091D03*
X0063201Y0224091D03*
X0063201Y0234091D03*
X0063201Y0244091D03*
X0063201Y0254091D03*
X0063201Y0264091D03*
X0133201Y0264091D03*
X0133201Y0254091D03*
X0133201Y0244091D03*
X0133201Y0234091D03*
X0133201Y0224091D03*
X0133201Y0214091D03*
X0133201Y0204091D03*
X0133201Y0194091D03*
X0133201Y0184091D03*
X0133201Y0174091D03*
X0133201Y0164091D03*
X0133201Y0154091D03*
D11*
X0027969Y0028305D02*
X0027969Y0020923D01*
X0041748Y0020923D02*
X0041748Y0028305D01*
X0063402Y0028305D02*
X0063402Y0020923D01*
X0077181Y0020923D02*
X0077181Y0028305D01*
X0098835Y0028305D02*
X0098835Y0020923D01*
X0112614Y0020923D02*
X0112614Y0028305D01*
X0126394Y0028305D02*
X0126394Y0020923D01*
X0147654Y0021711D02*
X0147654Y0029093D01*
X0161433Y0029093D02*
X0161433Y0021711D01*
D12*
X0132086Y0061681D03*
X0132086Y0091681D03*
X0092086Y0091681D03*
X0062086Y0091681D03*
X0062086Y0061681D03*
D13*
X0044294Y0147037D03*
X0147063Y0104988D03*
X0147063Y0278217D03*
M02*
