%
M48
M72
T01C0.01378
T02C0.04000
T03C0.04921
T04C0.05100
%
T01
X44294Y147037
X147063Y104988
X147063Y278217
T02
X133201Y264091
X133201Y254091
X133201Y244091
X133201Y234091
X133201Y224091
X133201Y214091
X133201Y204091
X133201Y194091
X133201Y184091
X133201Y174091
X133201Y164091
X133201Y154091
X63201Y154091
X63201Y164091
X63201Y174091
X63201Y184091
X63201Y194091
X63201Y204091
X63201Y214091
X63201Y224091
X63201Y234091
X63201Y244091
X63201Y254091
X63201Y264091
T03
X27969Y24614
X41748Y24614
X63402Y24614
X77181Y24614
X98835Y24614
X112614Y24614
X126394Y24614
X147654Y25402
X161433Y25402
T04
X132086Y61681
X132086Y91681
X92086Y91681
X62086Y91681
X62086Y61681
M30
