G75*
%MOIN*%
%OFA0B0*%
%FSLAX25Y25*%
%IPPOS*%
%LPD*%
%AMOC8*
5,1,8,0,0,1.08239X$1,22.5*
%
%ADD10OC8,0.07400*%
%ADD11C,0.08200*%
%ADD12C,0.12611*%
%ADD13C,0.07400*%
%ADD14C,0.08182*%
D10*
X0022614Y0150146D03*
X0022614Y0170146D03*
X0043520Y0180067D03*
X0043520Y0160067D03*
X0156748Y0215224D03*
X0176748Y0215224D03*
D11*
X0133201Y0220154D03*
X0133201Y0210154D03*
X0133201Y0200154D03*
X0133201Y0190154D03*
X0133201Y0180154D03*
X0133201Y0170154D03*
X0133201Y0160154D03*
X0133201Y0150154D03*
X0063201Y0150154D03*
X0063201Y0160154D03*
X0063201Y0170154D03*
X0063201Y0180154D03*
X0063201Y0190154D03*
X0063201Y0200154D03*
X0063201Y0210154D03*
X0063201Y0220154D03*
X0063201Y0230154D03*
X0063201Y0240154D03*
X0063201Y0250154D03*
X0063201Y0260154D03*
X0133201Y0260154D03*
X0133201Y0250154D03*
X0133201Y0240154D03*
X0133201Y0230154D03*
D12*
X0151157Y0151366D03*
X0180685Y0151366D03*
X0150685Y0086406D03*
X0181157Y0072626D03*
X0150685Y0058846D03*
D13*
X0157732Y0185153D02*
X0157732Y0191753D01*
X0167732Y0191753D02*
X0167732Y0185153D01*
X0177378Y0185153D02*
X0177378Y0191753D01*
D14*
X0027969Y0053167D02*
X0027969Y0045785D01*
X0041748Y0045785D02*
X0041748Y0053167D01*
X0063402Y0053167D02*
X0063402Y0045785D01*
X0077181Y0045785D02*
X0077181Y0053167D01*
X0098835Y0053167D02*
X0098835Y0045785D01*
X0112614Y0045785D02*
X0112614Y0053167D01*
X0126394Y0053167D02*
X0126394Y0045785D01*
M02*
