G75*
%MOIN*%
%OFA0B0*%
%FSLAX25Y25*%
%IPPOS*%
%LPD*%
%AMOC8*
5,1,8,0,0,1.08239X$1,22.5*
%
%ADD10C,0.00787*%
%ADD11C,0.02400*%
%ADD12C,0.00400*%
%ADD13C,0.00500*%
%ADD14C,0.01200*%
%ADD15C,0.00700*%
D10*
X0001394Y0010500D02*
X0001394Y0286091D01*
X0005331Y0286091D01*
X0194307Y0286091D01*
X0198244Y0286091D01*
X0198244Y0010500D01*
X0194307Y0010500D01*
X0005331Y0010500D01*
X0001394Y0010500D01*
D11*
X0022614Y0157146D02*
X0022614Y0163146D01*
X0043520Y0167067D02*
X0043520Y0173067D01*
X0163748Y0215224D02*
X0169748Y0215224D01*
D12*
X0171748Y0215224D02*
X0171750Y0215365D01*
X0171756Y0215506D01*
X0171766Y0215646D01*
X0171780Y0215786D01*
X0171798Y0215926D01*
X0171819Y0216065D01*
X0171845Y0216204D01*
X0171874Y0216342D01*
X0171908Y0216478D01*
X0171945Y0216614D01*
X0171986Y0216749D01*
X0172031Y0216883D01*
X0172080Y0217015D01*
X0172132Y0217146D01*
X0172188Y0217275D01*
X0172248Y0217402D01*
X0172311Y0217528D01*
X0172377Y0217652D01*
X0172448Y0217775D01*
X0172521Y0217895D01*
X0172598Y0218013D01*
X0172678Y0218129D01*
X0172762Y0218242D01*
X0172848Y0218353D01*
X0172938Y0218462D01*
X0173031Y0218568D01*
X0173126Y0218671D01*
X0173225Y0218772D01*
X0173326Y0218870D01*
X0173430Y0218965D01*
X0173537Y0219057D01*
X0173646Y0219146D01*
X0173758Y0219231D01*
X0173872Y0219314D01*
X0173988Y0219394D01*
X0174107Y0219470D01*
X0174228Y0219542D01*
X0174350Y0219612D01*
X0174475Y0219677D01*
X0174601Y0219740D01*
X0174729Y0219798D01*
X0174859Y0219853D01*
X0174990Y0219905D01*
X0175123Y0219952D01*
X0175257Y0219996D01*
X0175392Y0220037D01*
X0175528Y0220073D01*
X0175665Y0220105D01*
X0175803Y0220134D01*
X0175941Y0220159D01*
X0176081Y0220179D01*
X0176221Y0220196D01*
X0176361Y0220209D01*
X0176502Y0220218D01*
X0176642Y0220223D01*
X0176783Y0220224D01*
X0176924Y0220221D01*
X0177065Y0220214D01*
X0177205Y0220203D01*
X0177345Y0220188D01*
X0177485Y0220169D01*
X0177624Y0220147D01*
X0177762Y0220120D01*
X0177900Y0220090D01*
X0178036Y0220055D01*
X0178172Y0220017D01*
X0178306Y0219975D01*
X0178440Y0219929D01*
X0178572Y0219880D01*
X0178702Y0219826D01*
X0178831Y0219769D01*
X0178958Y0219709D01*
X0179084Y0219645D01*
X0179207Y0219577D01*
X0179329Y0219506D01*
X0179449Y0219432D01*
X0179566Y0219354D01*
X0179681Y0219273D01*
X0179794Y0219189D01*
X0179905Y0219102D01*
X0180013Y0219011D01*
X0180118Y0218918D01*
X0180221Y0218821D01*
X0180321Y0218722D01*
X0180418Y0218620D01*
X0180512Y0218515D01*
X0180603Y0218408D01*
X0180691Y0218298D01*
X0180776Y0218186D01*
X0180858Y0218071D01*
X0180937Y0217954D01*
X0181012Y0217835D01*
X0181084Y0217714D01*
X0181152Y0217591D01*
X0181217Y0217466D01*
X0181279Y0217339D01*
X0181336Y0217210D01*
X0181391Y0217080D01*
X0181441Y0216949D01*
X0181488Y0216816D01*
X0181531Y0216682D01*
X0181570Y0216546D01*
X0181605Y0216410D01*
X0181637Y0216273D01*
X0181664Y0216135D01*
X0181688Y0215996D01*
X0181708Y0215856D01*
X0181724Y0215716D01*
X0181736Y0215576D01*
X0181744Y0215435D01*
X0181748Y0215294D01*
X0181748Y0215154D01*
X0181744Y0215013D01*
X0181736Y0214872D01*
X0181724Y0214732D01*
X0181708Y0214592D01*
X0181688Y0214452D01*
X0181664Y0214313D01*
X0181637Y0214175D01*
X0181605Y0214038D01*
X0181570Y0213902D01*
X0181531Y0213766D01*
X0181488Y0213632D01*
X0181441Y0213499D01*
X0181391Y0213368D01*
X0181336Y0213238D01*
X0181279Y0213109D01*
X0181217Y0212982D01*
X0181152Y0212857D01*
X0181084Y0212734D01*
X0181012Y0212613D01*
X0180937Y0212494D01*
X0180858Y0212377D01*
X0180776Y0212262D01*
X0180691Y0212150D01*
X0180603Y0212040D01*
X0180512Y0211933D01*
X0180418Y0211828D01*
X0180321Y0211726D01*
X0180221Y0211627D01*
X0180118Y0211530D01*
X0180013Y0211437D01*
X0179905Y0211346D01*
X0179794Y0211259D01*
X0179681Y0211175D01*
X0179566Y0211094D01*
X0179449Y0211016D01*
X0179329Y0210942D01*
X0179207Y0210871D01*
X0179084Y0210803D01*
X0178958Y0210739D01*
X0178831Y0210679D01*
X0178702Y0210622D01*
X0178572Y0210568D01*
X0178440Y0210519D01*
X0178306Y0210473D01*
X0178172Y0210431D01*
X0178036Y0210393D01*
X0177900Y0210358D01*
X0177762Y0210328D01*
X0177624Y0210301D01*
X0177485Y0210279D01*
X0177345Y0210260D01*
X0177205Y0210245D01*
X0177065Y0210234D01*
X0176924Y0210227D01*
X0176783Y0210224D01*
X0176642Y0210225D01*
X0176502Y0210230D01*
X0176361Y0210239D01*
X0176221Y0210252D01*
X0176081Y0210269D01*
X0175941Y0210289D01*
X0175803Y0210314D01*
X0175665Y0210343D01*
X0175528Y0210375D01*
X0175392Y0210411D01*
X0175257Y0210452D01*
X0175123Y0210496D01*
X0174990Y0210543D01*
X0174859Y0210595D01*
X0174729Y0210650D01*
X0174601Y0210708D01*
X0174475Y0210771D01*
X0174350Y0210836D01*
X0174228Y0210906D01*
X0174107Y0210978D01*
X0173988Y0211054D01*
X0173872Y0211134D01*
X0173758Y0211217D01*
X0173646Y0211302D01*
X0173537Y0211391D01*
X0173430Y0211483D01*
X0173326Y0211578D01*
X0173225Y0211676D01*
X0173126Y0211777D01*
X0173031Y0211880D01*
X0172938Y0211986D01*
X0172848Y0212095D01*
X0172762Y0212206D01*
X0172678Y0212319D01*
X0172598Y0212435D01*
X0172521Y0212553D01*
X0172448Y0212673D01*
X0172377Y0212796D01*
X0172311Y0212920D01*
X0172248Y0213046D01*
X0172188Y0213173D01*
X0172132Y0213302D01*
X0172080Y0213433D01*
X0172031Y0213565D01*
X0171986Y0213699D01*
X0171945Y0213834D01*
X0171908Y0213970D01*
X0171874Y0214106D01*
X0171845Y0214244D01*
X0171819Y0214383D01*
X0171798Y0214522D01*
X0171780Y0214662D01*
X0171766Y0214802D01*
X0171756Y0214942D01*
X0171750Y0215083D01*
X0171748Y0215224D01*
X0193621Y0159031D02*
X0192854Y0158264D01*
X0192854Y0156730D01*
X0193621Y0155962D01*
X0193621Y0154428D02*
X0192854Y0153660D01*
X0192854Y0152126D01*
X0193621Y0151358D01*
X0194388Y0151358D01*
X0195156Y0152126D01*
X0195156Y0153660D01*
X0195923Y0154428D01*
X0196690Y0154428D01*
X0197457Y0153660D01*
X0197457Y0152126D01*
X0196690Y0151358D01*
X0196690Y0149824D02*
X0192854Y0149824D01*
X0192854Y0146754D02*
X0196690Y0146754D01*
X0197457Y0147522D01*
X0197457Y0149056D01*
X0196690Y0149824D01*
X0198225Y0152893D02*
X0192086Y0152893D01*
X0197457Y0155962D02*
X0194388Y0159031D01*
X0193621Y0159031D01*
X0197457Y0159031D02*
X0197457Y0155962D01*
X0103655Y0074831D02*
X0103655Y0070228D01*
X0104422Y0072530D02*
X0101353Y0072530D01*
X0103655Y0074831D01*
X0099818Y0074064D02*
X0099051Y0074831D01*
X0097516Y0074831D01*
X0096749Y0074064D01*
X0096749Y0073297D01*
X0097516Y0072530D01*
X0099051Y0072530D01*
X0099818Y0071762D01*
X0099818Y0070995D01*
X0099051Y0070228D01*
X0097516Y0070228D01*
X0096749Y0070995D01*
X0095214Y0070995D02*
X0095214Y0074831D01*
X0092145Y0074831D02*
X0092145Y0070995D01*
X0092912Y0070228D01*
X0094447Y0070228D01*
X0095214Y0070995D01*
X0098283Y0069460D02*
X0098283Y0075599D01*
X0068831Y0074477D02*
X0065762Y0074477D01*
X0065762Y0072175D01*
X0067297Y0072943D01*
X0068064Y0072943D01*
X0068831Y0072175D01*
X0068831Y0070641D01*
X0068064Y0069873D01*
X0066529Y0069873D01*
X0065762Y0070641D01*
X0064228Y0070641D02*
X0064228Y0071408D01*
X0063460Y0072175D01*
X0061926Y0072175D01*
X0061158Y0072943D01*
X0061158Y0073710D01*
X0061926Y0074477D01*
X0063460Y0074477D01*
X0064228Y0073710D01*
X0062693Y0075244D02*
X0062693Y0069106D01*
X0063460Y0069873D02*
X0064228Y0070641D01*
X0063460Y0069873D02*
X0061926Y0069873D01*
X0061158Y0070641D01*
X0059624Y0070641D02*
X0059624Y0074477D01*
X0056554Y0074477D02*
X0056554Y0070641D01*
X0057322Y0069873D01*
X0058856Y0069873D01*
X0059624Y0070641D01*
X0033398Y0070641D02*
X0033398Y0071408D01*
X0032631Y0072175D01*
X0030329Y0072175D01*
X0030329Y0070641D01*
X0031096Y0069873D01*
X0032631Y0069873D01*
X0033398Y0070641D01*
X0031864Y0073710D02*
X0030329Y0072175D01*
X0028794Y0071408D02*
X0028027Y0072175D01*
X0026492Y0072175D01*
X0025725Y0072943D01*
X0025725Y0073710D01*
X0026492Y0074477D01*
X0028027Y0074477D01*
X0028794Y0073710D01*
X0027260Y0075244D02*
X0027260Y0069106D01*
X0028027Y0069873D02*
X0026492Y0069873D01*
X0025725Y0070641D01*
X0024191Y0070641D02*
X0024191Y0074477D01*
X0021121Y0074477D02*
X0021121Y0070641D01*
X0021889Y0069873D01*
X0023423Y0069873D01*
X0024191Y0070641D01*
X0028027Y0069873D02*
X0028794Y0070641D01*
X0028794Y0071408D01*
X0031864Y0073710D02*
X0033398Y0074477D01*
X0017614Y0170146D02*
X0017616Y0170287D01*
X0017622Y0170428D01*
X0017632Y0170568D01*
X0017646Y0170708D01*
X0017664Y0170848D01*
X0017685Y0170987D01*
X0017711Y0171126D01*
X0017740Y0171264D01*
X0017774Y0171400D01*
X0017811Y0171536D01*
X0017852Y0171671D01*
X0017897Y0171805D01*
X0017946Y0171937D01*
X0017998Y0172068D01*
X0018054Y0172197D01*
X0018114Y0172324D01*
X0018177Y0172450D01*
X0018243Y0172574D01*
X0018314Y0172697D01*
X0018387Y0172817D01*
X0018464Y0172935D01*
X0018544Y0173051D01*
X0018628Y0173164D01*
X0018714Y0173275D01*
X0018804Y0173384D01*
X0018897Y0173490D01*
X0018992Y0173593D01*
X0019091Y0173694D01*
X0019192Y0173792D01*
X0019296Y0173887D01*
X0019403Y0173979D01*
X0019512Y0174068D01*
X0019624Y0174153D01*
X0019738Y0174236D01*
X0019854Y0174316D01*
X0019973Y0174392D01*
X0020094Y0174464D01*
X0020216Y0174534D01*
X0020341Y0174599D01*
X0020467Y0174662D01*
X0020595Y0174720D01*
X0020725Y0174775D01*
X0020856Y0174827D01*
X0020989Y0174874D01*
X0021123Y0174918D01*
X0021258Y0174959D01*
X0021394Y0174995D01*
X0021531Y0175027D01*
X0021669Y0175056D01*
X0021807Y0175081D01*
X0021947Y0175101D01*
X0022087Y0175118D01*
X0022227Y0175131D01*
X0022368Y0175140D01*
X0022508Y0175145D01*
X0022649Y0175146D01*
X0022790Y0175143D01*
X0022931Y0175136D01*
X0023071Y0175125D01*
X0023211Y0175110D01*
X0023351Y0175091D01*
X0023490Y0175069D01*
X0023628Y0175042D01*
X0023766Y0175012D01*
X0023902Y0174977D01*
X0024038Y0174939D01*
X0024172Y0174897D01*
X0024306Y0174851D01*
X0024438Y0174802D01*
X0024568Y0174748D01*
X0024697Y0174691D01*
X0024824Y0174631D01*
X0024950Y0174567D01*
X0025073Y0174499D01*
X0025195Y0174428D01*
X0025315Y0174354D01*
X0025432Y0174276D01*
X0025547Y0174195D01*
X0025660Y0174111D01*
X0025771Y0174024D01*
X0025879Y0173933D01*
X0025984Y0173840D01*
X0026087Y0173743D01*
X0026187Y0173644D01*
X0026284Y0173542D01*
X0026378Y0173437D01*
X0026469Y0173330D01*
X0026557Y0173220D01*
X0026642Y0173108D01*
X0026724Y0172993D01*
X0026803Y0172876D01*
X0026878Y0172757D01*
X0026950Y0172636D01*
X0027018Y0172513D01*
X0027083Y0172388D01*
X0027145Y0172261D01*
X0027202Y0172132D01*
X0027257Y0172002D01*
X0027307Y0171871D01*
X0027354Y0171738D01*
X0027397Y0171604D01*
X0027436Y0171468D01*
X0027471Y0171332D01*
X0027503Y0171195D01*
X0027530Y0171057D01*
X0027554Y0170918D01*
X0027574Y0170778D01*
X0027590Y0170638D01*
X0027602Y0170498D01*
X0027610Y0170357D01*
X0027614Y0170216D01*
X0027614Y0170076D01*
X0027610Y0169935D01*
X0027602Y0169794D01*
X0027590Y0169654D01*
X0027574Y0169514D01*
X0027554Y0169374D01*
X0027530Y0169235D01*
X0027503Y0169097D01*
X0027471Y0168960D01*
X0027436Y0168824D01*
X0027397Y0168688D01*
X0027354Y0168554D01*
X0027307Y0168421D01*
X0027257Y0168290D01*
X0027202Y0168160D01*
X0027145Y0168031D01*
X0027083Y0167904D01*
X0027018Y0167779D01*
X0026950Y0167656D01*
X0026878Y0167535D01*
X0026803Y0167416D01*
X0026724Y0167299D01*
X0026642Y0167184D01*
X0026557Y0167072D01*
X0026469Y0166962D01*
X0026378Y0166855D01*
X0026284Y0166750D01*
X0026187Y0166648D01*
X0026087Y0166549D01*
X0025984Y0166452D01*
X0025879Y0166359D01*
X0025771Y0166268D01*
X0025660Y0166181D01*
X0025547Y0166097D01*
X0025432Y0166016D01*
X0025315Y0165938D01*
X0025195Y0165864D01*
X0025073Y0165793D01*
X0024950Y0165725D01*
X0024824Y0165661D01*
X0024697Y0165601D01*
X0024568Y0165544D01*
X0024438Y0165490D01*
X0024306Y0165441D01*
X0024172Y0165395D01*
X0024038Y0165353D01*
X0023902Y0165315D01*
X0023766Y0165280D01*
X0023628Y0165250D01*
X0023490Y0165223D01*
X0023351Y0165201D01*
X0023211Y0165182D01*
X0023071Y0165167D01*
X0022931Y0165156D01*
X0022790Y0165149D01*
X0022649Y0165146D01*
X0022508Y0165147D01*
X0022368Y0165152D01*
X0022227Y0165161D01*
X0022087Y0165174D01*
X0021947Y0165191D01*
X0021807Y0165211D01*
X0021669Y0165236D01*
X0021531Y0165265D01*
X0021394Y0165297D01*
X0021258Y0165333D01*
X0021123Y0165374D01*
X0020989Y0165418D01*
X0020856Y0165465D01*
X0020725Y0165517D01*
X0020595Y0165572D01*
X0020467Y0165630D01*
X0020341Y0165693D01*
X0020216Y0165758D01*
X0020094Y0165828D01*
X0019973Y0165900D01*
X0019854Y0165976D01*
X0019738Y0166056D01*
X0019624Y0166139D01*
X0019512Y0166224D01*
X0019403Y0166313D01*
X0019296Y0166405D01*
X0019192Y0166500D01*
X0019091Y0166598D01*
X0018992Y0166699D01*
X0018897Y0166802D01*
X0018804Y0166908D01*
X0018714Y0167017D01*
X0018628Y0167128D01*
X0018544Y0167241D01*
X0018464Y0167357D01*
X0018387Y0167475D01*
X0018314Y0167595D01*
X0018243Y0167718D01*
X0018177Y0167842D01*
X0018114Y0167968D01*
X0018054Y0168095D01*
X0017998Y0168224D01*
X0017946Y0168355D01*
X0017897Y0168487D01*
X0017852Y0168621D01*
X0017811Y0168756D01*
X0017774Y0168892D01*
X0017740Y0169028D01*
X0017711Y0169166D01*
X0017685Y0169305D01*
X0017664Y0169444D01*
X0017646Y0169584D01*
X0017632Y0169724D01*
X0017622Y0169864D01*
X0017616Y0170005D01*
X0017614Y0170146D01*
X0038520Y0180067D02*
X0038522Y0180208D01*
X0038528Y0180349D01*
X0038538Y0180489D01*
X0038552Y0180629D01*
X0038570Y0180769D01*
X0038591Y0180908D01*
X0038617Y0181047D01*
X0038646Y0181185D01*
X0038680Y0181321D01*
X0038717Y0181457D01*
X0038758Y0181592D01*
X0038803Y0181726D01*
X0038852Y0181858D01*
X0038904Y0181989D01*
X0038960Y0182118D01*
X0039020Y0182245D01*
X0039083Y0182371D01*
X0039149Y0182495D01*
X0039220Y0182618D01*
X0039293Y0182738D01*
X0039370Y0182856D01*
X0039450Y0182972D01*
X0039534Y0183085D01*
X0039620Y0183196D01*
X0039710Y0183305D01*
X0039803Y0183411D01*
X0039898Y0183514D01*
X0039997Y0183615D01*
X0040098Y0183713D01*
X0040202Y0183808D01*
X0040309Y0183900D01*
X0040418Y0183989D01*
X0040530Y0184074D01*
X0040644Y0184157D01*
X0040760Y0184237D01*
X0040879Y0184313D01*
X0041000Y0184385D01*
X0041122Y0184455D01*
X0041247Y0184520D01*
X0041373Y0184583D01*
X0041501Y0184641D01*
X0041631Y0184696D01*
X0041762Y0184748D01*
X0041895Y0184795D01*
X0042029Y0184839D01*
X0042164Y0184880D01*
X0042300Y0184916D01*
X0042437Y0184948D01*
X0042575Y0184977D01*
X0042713Y0185002D01*
X0042853Y0185022D01*
X0042993Y0185039D01*
X0043133Y0185052D01*
X0043274Y0185061D01*
X0043414Y0185066D01*
X0043555Y0185067D01*
X0043696Y0185064D01*
X0043837Y0185057D01*
X0043977Y0185046D01*
X0044117Y0185031D01*
X0044257Y0185012D01*
X0044396Y0184990D01*
X0044534Y0184963D01*
X0044672Y0184933D01*
X0044808Y0184898D01*
X0044944Y0184860D01*
X0045078Y0184818D01*
X0045212Y0184772D01*
X0045344Y0184723D01*
X0045474Y0184669D01*
X0045603Y0184612D01*
X0045730Y0184552D01*
X0045856Y0184488D01*
X0045979Y0184420D01*
X0046101Y0184349D01*
X0046221Y0184275D01*
X0046338Y0184197D01*
X0046453Y0184116D01*
X0046566Y0184032D01*
X0046677Y0183945D01*
X0046785Y0183854D01*
X0046890Y0183761D01*
X0046993Y0183664D01*
X0047093Y0183565D01*
X0047190Y0183463D01*
X0047284Y0183358D01*
X0047375Y0183251D01*
X0047463Y0183141D01*
X0047548Y0183029D01*
X0047630Y0182914D01*
X0047709Y0182797D01*
X0047784Y0182678D01*
X0047856Y0182557D01*
X0047924Y0182434D01*
X0047989Y0182309D01*
X0048051Y0182182D01*
X0048108Y0182053D01*
X0048163Y0181923D01*
X0048213Y0181792D01*
X0048260Y0181659D01*
X0048303Y0181525D01*
X0048342Y0181389D01*
X0048377Y0181253D01*
X0048409Y0181116D01*
X0048436Y0180978D01*
X0048460Y0180839D01*
X0048480Y0180699D01*
X0048496Y0180559D01*
X0048508Y0180419D01*
X0048516Y0180278D01*
X0048520Y0180137D01*
X0048520Y0179997D01*
X0048516Y0179856D01*
X0048508Y0179715D01*
X0048496Y0179575D01*
X0048480Y0179435D01*
X0048460Y0179295D01*
X0048436Y0179156D01*
X0048409Y0179018D01*
X0048377Y0178881D01*
X0048342Y0178745D01*
X0048303Y0178609D01*
X0048260Y0178475D01*
X0048213Y0178342D01*
X0048163Y0178211D01*
X0048108Y0178081D01*
X0048051Y0177952D01*
X0047989Y0177825D01*
X0047924Y0177700D01*
X0047856Y0177577D01*
X0047784Y0177456D01*
X0047709Y0177337D01*
X0047630Y0177220D01*
X0047548Y0177105D01*
X0047463Y0176993D01*
X0047375Y0176883D01*
X0047284Y0176776D01*
X0047190Y0176671D01*
X0047093Y0176569D01*
X0046993Y0176470D01*
X0046890Y0176373D01*
X0046785Y0176280D01*
X0046677Y0176189D01*
X0046566Y0176102D01*
X0046453Y0176018D01*
X0046338Y0175937D01*
X0046221Y0175859D01*
X0046101Y0175785D01*
X0045979Y0175714D01*
X0045856Y0175646D01*
X0045730Y0175582D01*
X0045603Y0175522D01*
X0045474Y0175465D01*
X0045344Y0175411D01*
X0045212Y0175362D01*
X0045078Y0175316D01*
X0044944Y0175274D01*
X0044808Y0175236D01*
X0044672Y0175201D01*
X0044534Y0175171D01*
X0044396Y0175144D01*
X0044257Y0175122D01*
X0044117Y0175103D01*
X0043977Y0175088D01*
X0043837Y0175077D01*
X0043696Y0175070D01*
X0043555Y0175067D01*
X0043414Y0175068D01*
X0043274Y0175073D01*
X0043133Y0175082D01*
X0042993Y0175095D01*
X0042853Y0175112D01*
X0042713Y0175132D01*
X0042575Y0175157D01*
X0042437Y0175186D01*
X0042300Y0175218D01*
X0042164Y0175254D01*
X0042029Y0175295D01*
X0041895Y0175339D01*
X0041762Y0175386D01*
X0041631Y0175438D01*
X0041501Y0175493D01*
X0041373Y0175551D01*
X0041247Y0175614D01*
X0041122Y0175679D01*
X0041000Y0175749D01*
X0040879Y0175821D01*
X0040760Y0175897D01*
X0040644Y0175977D01*
X0040530Y0176060D01*
X0040418Y0176145D01*
X0040309Y0176234D01*
X0040202Y0176326D01*
X0040098Y0176421D01*
X0039997Y0176519D01*
X0039898Y0176620D01*
X0039803Y0176723D01*
X0039710Y0176829D01*
X0039620Y0176938D01*
X0039534Y0177049D01*
X0039450Y0177162D01*
X0039370Y0177278D01*
X0039293Y0177396D01*
X0039220Y0177516D01*
X0039149Y0177639D01*
X0039083Y0177763D01*
X0039020Y0177889D01*
X0038960Y0178016D01*
X0038904Y0178145D01*
X0038852Y0178276D01*
X0038803Y0178408D01*
X0038758Y0178542D01*
X0038717Y0178677D01*
X0038680Y0178813D01*
X0038646Y0178949D01*
X0038617Y0179087D01*
X0038591Y0179226D01*
X0038570Y0179365D01*
X0038552Y0179505D01*
X0038538Y0179645D01*
X0038528Y0179785D01*
X0038522Y0179926D01*
X0038520Y0180067D01*
D13*
X0047266Y0171714D02*
X0051770Y0171714D01*
X0051770Y0170213D02*
X0051770Y0173216D01*
X0048767Y0170213D02*
X0047266Y0171714D01*
X0048016Y0168612D02*
X0049518Y0168612D01*
X0050268Y0167861D01*
X0050268Y0165609D01*
X0050268Y0167110D02*
X0051770Y0168612D01*
X0051770Y0165609D02*
X0047266Y0165609D01*
X0047266Y0167861D01*
X0048016Y0168612D01*
X0030864Y0163294D02*
X0030864Y0160292D01*
X0027862Y0163294D01*
X0027111Y0163294D01*
X0026360Y0162544D01*
X0026360Y0161042D01*
X0027111Y0160292D01*
X0027111Y0158690D02*
X0028612Y0158690D01*
X0029363Y0157940D01*
X0029363Y0155688D01*
X0029363Y0157189D02*
X0030864Y0158690D01*
X0030864Y0155688D02*
X0026360Y0155688D01*
X0026360Y0157940D01*
X0027111Y0158690D01*
X0068451Y0130908D02*
X0068451Y0127155D01*
X0069201Y0126404D01*
X0070702Y0126404D01*
X0071453Y0127155D01*
X0071453Y0130908D01*
X0073054Y0130157D02*
X0073805Y0130908D01*
X0075306Y0130908D01*
X0076057Y0130157D01*
X0075306Y0128656D02*
X0073805Y0128656D01*
X0073054Y0129407D01*
X0073054Y0130157D01*
X0074556Y0131659D02*
X0074556Y0125653D01*
X0075306Y0126404D02*
X0076057Y0127155D01*
X0076057Y0127905D01*
X0075306Y0128656D01*
X0075306Y0126404D02*
X0073805Y0126404D01*
X0073054Y0127155D01*
X0077658Y0126404D02*
X0080661Y0126404D01*
X0079160Y0126404D02*
X0079160Y0130908D01*
X0077658Y0129407D01*
X0141315Y0160421D02*
X0190528Y0160421D01*
X0190528Y0047035D01*
X0141315Y0047035D01*
X0141315Y0160421D01*
X0147457Y0180185D02*
X0147457Y0193177D01*
X0152417Y0193177D01*
X0156354Y0193177D02*
X0161315Y0193177D01*
X0165252Y0193177D02*
X0170213Y0193177D01*
X0174150Y0193177D02*
X0179110Y0193177D01*
X0183047Y0193177D02*
X0188008Y0193177D01*
X0188402Y0193177D01*
X0188008Y0193177D02*
X0188008Y0180185D01*
X0147850Y0180185D01*
X0147457Y0193177D02*
X0147457Y0198689D01*
X0188008Y0198689D01*
X0188008Y0193177D01*
X0169897Y0207725D02*
X0169146Y0206974D01*
X0167645Y0206974D01*
X0166894Y0207725D01*
X0165293Y0206974D02*
X0163791Y0208476D01*
X0164542Y0208476D02*
X0162290Y0208476D01*
X0162290Y0206974D02*
X0162290Y0211478D01*
X0164542Y0211478D01*
X0165293Y0210728D01*
X0165293Y0209226D01*
X0164542Y0208476D01*
X0166894Y0210728D02*
X0167645Y0211478D01*
X0169146Y0211478D01*
X0169897Y0210728D01*
X0169897Y0209977D01*
X0169146Y0209226D01*
X0169897Y0208476D01*
X0169897Y0207725D01*
X0169146Y0209226D02*
X0168395Y0209226D01*
X0133283Y0067980D02*
X0091945Y0067980D01*
X0091945Y0014378D01*
X0097063Y0014378D01*
X0101000Y0014378D02*
X0106118Y0014378D01*
X0110055Y0014378D02*
X0115173Y0014378D01*
X0119110Y0014378D02*
X0124228Y0014378D01*
X0128165Y0014378D02*
X0133283Y0014378D01*
X0133283Y0067980D01*
X0128756Y0035047D02*
X0123835Y0035047D01*
X0123835Y0033079D01*
X0128756Y0033079D01*
X0128756Y0035047D01*
X0114976Y0035047D02*
X0114976Y0033079D01*
X0110055Y0033079D01*
X0110055Y0035047D01*
X0114976Y0035047D01*
X0101000Y0035047D02*
X0101000Y0033079D01*
X0096079Y0033079D01*
X0096079Y0035047D01*
X0101000Y0035047D01*
X0091945Y0032094D02*
X0091945Y0016346D01*
X0091945Y0014378D02*
X0091945Y0010500D01*
X0133283Y0010500D01*
X0133283Y0014378D01*
X0084071Y0014378D02*
X0084071Y0010500D01*
X0056512Y0010500D01*
X0056512Y0014378D01*
X0060449Y0014378D01*
X0064386Y0014378D02*
X0068323Y0014378D01*
X0072260Y0014378D02*
X0076197Y0014378D01*
X0080134Y0014378D02*
X0084071Y0014378D01*
X0084071Y0067980D01*
X0056512Y0067980D01*
X0056512Y0014378D01*
X0056512Y0016346D02*
X0056512Y0032094D01*
X0061433Y0033079D02*
X0061433Y0035047D01*
X0066354Y0035047D01*
X0066354Y0033079D01*
X0061433Y0033079D01*
X0048638Y0032094D02*
X0048638Y0016346D01*
X0048638Y0014378D02*
X0044701Y0014378D01*
X0048638Y0014378D02*
X0048638Y0067980D01*
X0021079Y0067980D01*
X0021079Y0014378D01*
X0025016Y0014378D01*
X0028953Y0014378D02*
X0032890Y0014378D01*
X0036827Y0014378D02*
X0040764Y0014378D01*
X0048638Y0014378D02*
X0048638Y0010500D01*
X0021079Y0010500D01*
X0021079Y0014378D01*
X0021079Y0016346D02*
X0021079Y0032094D01*
X0026000Y0033079D02*
X0026000Y0035047D01*
X0030921Y0035047D01*
X0030921Y0033079D01*
X0026000Y0033079D01*
X0038795Y0033079D02*
X0043717Y0033079D01*
X0043717Y0035047D01*
X0038795Y0035047D01*
X0038795Y0033079D01*
X0074228Y0033079D02*
X0079150Y0033079D01*
X0079150Y0035047D01*
X0074228Y0035047D01*
X0074228Y0033079D01*
X0084071Y0032094D02*
X0084071Y0016346D01*
D14*
X0064201Y0133154D02*
X0132201Y0133154D01*
X0138201Y0145154D01*
X0128201Y0145154D01*
X0128201Y0265154D01*
X0138201Y0265154D01*
X0138201Y0145154D01*
X0068201Y0145154D02*
X0068201Y0265154D01*
X0058201Y0265154D01*
X0058201Y0145154D01*
X0068201Y0145154D01*
X0058201Y0145154D02*
X0064201Y0133154D01*
X0058201Y0265154D02*
X0058201Y0277154D01*
X0082201Y0277154D01*
X0082201Y0284654D01*
X0114201Y0284654D01*
X0114201Y0277154D01*
X0138201Y0277154D01*
X0138201Y0265154D01*
D15*
X0140155Y0198023D02*
X0141206Y0198023D01*
X0142257Y0196972D01*
X0143308Y0198023D01*
X0144359Y0198023D01*
X0145410Y0196972D01*
X0145410Y0194871D01*
X0144359Y0193820D01*
X0144359Y0191578D02*
X0143308Y0191578D01*
X0142257Y0190527D01*
X0142257Y0188425D01*
X0141206Y0187374D01*
X0140155Y0187374D01*
X0139104Y0188425D01*
X0139104Y0190527D01*
X0140155Y0191578D01*
X0140155Y0193820D02*
X0139104Y0194871D01*
X0139104Y0196972D01*
X0140155Y0198023D01*
X0142257Y0196972D02*
X0142257Y0195922D01*
X0144359Y0191578D02*
X0145410Y0190527D01*
X0145410Y0188425D01*
X0144359Y0187374D01*
X0144359Y0185132D02*
X0139104Y0185132D01*
X0138054Y0189476D02*
X0146461Y0189476D01*
X0144359Y0185132D02*
X0145410Y0184081D01*
X0145410Y0181980D01*
X0144359Y0180929D01*
X0139104Y0180929D01*
M02*
