%
M48
M72
T01C0.03200
T02C0.04000
T03C0.04400
T04C0.04921
T05C0.05118
%
T01
X22614Y150146
X22614Y170146
X43520Y180067
X43520Y160067
X156748Y215224
X176748Y215224
T02
X133201Y220154
X133201Y210154
X133201Y200154
X133201Y190154
X133201Y180154
X133201Y170154
X133201Y160154
X133201Y150154
X63201Y150154
X63201Y160154
X63201Y170154
X63201Y180154
X63201Y190154
X63201Y200154
X63201Y210154
X63201Y220154
X63201Y230154
X63201Y240154
X63201Y250154
X63201Y260154
X133201Y260154
X133201Y250154
X133201Y240154
X133201Y230154
T03
X157732Y188453
X167732Y188453
X177378Y188453
T04
X27969Y49476
X41748Y49476
X63402Y49476
X77181Y49476
X98835Y49476
X112614Y49476
X126394Y49476
T05
X150685Y58846
X181157Y72626
X150685Y86406
X151157Y151366
X180685Y151366
M30
